<svg width="24" height="24" viewBox="0 0 24 24" fill="none" xmlns="http://www.w3.org/2000/svg">
<path d="M15.2894 8C16.8807 8 18.4069 8.63214 19.5321 9.75736C20.6573 10.8826 21.2894 12.4087 21.2894 14V21H17.2894V14C17.2894 13.4696 17.0787 12.9609 16.7036 12.5858C16.3286 12.2107 15.8199 12 15.2894 12C14.759 12 14.2503 12.2107 13.8752 12.5858C13.5001 12.9609 13.2894 13.4696 13.2894 14V21H9.28943V14C9.28943 12.4087 9.92157 10.8826 11.0468 9.75736C12.172 8.63214 13.6981 8 15.2894 8V8Z" stroke="#E4E4E4" stroke-opacity="0.52" stroke-width="2" stroke-linecap="round" stroke-linejoin="round"/>
<path d="M5.28943 9H1.28943V21H5.28943V9Z" stroke="#E4E4E4" stroke-opacity="0.52" stroke-width="2" stroke-linecap="round" stroke-linejoin="round"/>
<path d="M3.28943 6C4.394 6 5.28943 5.10457 5.28943 4C5.28943 2.89543 4.394 2 3.28943 2C2.18486 2 1.28943 2.89543 1.28943 4C1.28943 5.10457 2.18486 6 3.28943 6Z" stroke="#E4E4E4" stroke-opacity="0.52" stroke-width="2" stroke-linecap="round" stroke-linejoin="round"/>
</svg>
